<?xml version="1.0" standalone="no"?>
<!DOCTYPE svg PUBLIC "-//W3C//DTD SVG 20010904//EN"
 "http://www.w3.org/TR/2001/REC-SVG-20010904/DTD/svg10.dtd">
<svg version="1.0" xmlns="http://www.w3.org/2000/svg"
 width="700.000000pt" height="700.000000pt" viewBox="0 0 700.000000 700.000000"
 preserveAspectRatio="xMidYMid meet">
<metadata>
Created by potrace 1.14, written by Peter Selinger 2001-2017
</metadata>
<g transform="translate(0.000000,700.000000) scale(0.100000,-0.100000)"
fill="#000000" stroke="none">
<path d="M887 5834 c-1 -1 -34 -4 -72 -7 -204 -15 -393 -155 -478 -352 -46
-106 -45 -65 -46 -1964 -1 -1290 2 -1812 10 -1860 42 -246 250 -447 494 -478
28 -3 533 -6 1124 -7 l1074 -1 61 -80 c66 -87 225 -251 321 -332 241 -202 630
-381 929 -429 21 -3 48 -7 59 -9 129 -25 446 -26 601 -1 106 17 123 20 169 32
12 3 32 7 45 10 145 30 396 139 572 248 521 323 888 910 947 1516 10 98 9 357
-1 440 -40 333 -156 642 -344 920 -69 101 -83 119 -171 218 l-56 64 -1 486
c-1 268 -4 502 -8 521 -43 214 -192 384 -397 454 l-64 22 -1224 3 -1224 3
-291 291 -290 291 -869 1 c-478 1 -869 0 -870 0z m4095 -2077 c296 -71 527
-201 733 -412 427 -438 531 -1109 257 -1660 -349 -703 -1198 -1004 -1912 -677
-68 31 -221 118 -230 131 -3 4 -27 22 -54 41 -70 47 -221 203 -289 297 -137
191 -223 402 -262 638 -14 80 -14 393 -1 445 3 14 9 39 11 55 3 17 15 63 26
103 129 466 477 837 929 992 176 61 290 78 500 75 158 -2 201 -7 292 -28z"/>
<path d="M4375 2775 c0 -631 2 -726 15 -738 13 -13 676 -411 775 -467 22 -12
45 -26 50 -30 6 -4 56 -35 112 -68 l102 -60 22 36 c13 21 28 46 35 57 6 11 43
72 83 136 39 64 71 121 71 125 0 5 -26 24 -58 41 -77 44 -127 74 -207 122 -37
23 -69 41 -70 41 -2 0 -39 22 -83 49 -44 27 -83 50 -88 52 -5 2 -80 46 -166
97 l-156 93 -1 582 c0 320 0 599 0 620 l-1 37 -217 0 -218 0 0 -725z"/>
</g>
</svg>
